<mxfile host="app.diagrams.net" modified="2023-11-29T20:37:32.652Z" agent="Mozilla/5.0 (Macintosh; Intel Mac OS X 10_15_7) AppleWebKit/537.36 (KHTML, like Gecko) Chrome/119.0.0.0 Safari/537.36" etag="vsZHoQ6npE5eBLN3jH4p" version="22.1.4" type="github">
  <diagram name="Page-1" id="OYEd1laLnUiEeWxBfotK">
    <mxGraphModel dx="2739" dy="2377" grid="1" gridSize="10" guides="1" tooltips="1" connect="1" arrows="1" fold="1" page="1" pageScale="1" pageWidth="827" pageHeight="1169" math="0" shadow="0">
      <root>
        <mxCell id="0" />
        <mxCell id="1" parent="0" />
        <mxCell id="ZsojzR8B1eiomDhqGxiO-1" value="User" style="whiteSpace=wrap;html=1;align=center;" vertex="1" parent="1">
          <mxGeometry x="-280" y="630" width="100" height="40" as="geometry" />
        </mxCell>
        <mxCell id="ZsojzR8B1eiomDhqGxiO-2" value="" style="endArrow=none;html=1;rounded=0;" edge="1" parent="1" source="ZsojzR8B1eiomDhqGxiO-3" target="ZsojzR8B1eiomDhqGxiO-1">
          <mxGeometry relative="1" as="geometry">
            <mxPoint x="-340" y="650" as="sourcePoint" />
            <mxPoint x="-190" y="700" as="targetPoint" />
          </mxGeometry>
        </mxCell>
        <mxCell id="ZsojzR8B1eiomDhqGxiO-3" value="&lt;span style=&quot;border-bottom: 1px dotted&quot;&gt;ID&lt;/span&gt;" style="ellipse;whiteSpace=wrap;html=1;align=center;" vertex="1" parent="1">
          <mxGeometry x="-500" y="630" width="100" height="40" as="geometry" />
        </mxCell>
        <mxCell id="ZsojzR8B1eiomDhqGxiO-4" value="Surname" style="ellipse;whiteSpace=wrap;html=1;align=center;" vertex="1" parent="1">
          <mxGeometry x="-420" y="730" width="100" height="40" as="geometry" />
        </mxCell>
        <mxCell id="ZsojzR8B1eiomDhqGxiO-5" value="" style="endArrow=none;html=1;rounded=0;" edge="1" parent="1" source="ZsojzR8B1eiomDhqGxiO-4" target="ZsojzR8B1eiomDhqGxiO-1">
          <mxGeometry relative="1" as="geometry">
            <mxPoint x="-400" y="720" as="sourcePoint" />
            <mxPoint x="-240" y="720" as="targetPoint" />
          </mxGeometry>
        </mxCell>
        <mxCell id="ZsojzR8B1eiomDhqGxiO-6" value="DateOfBirth" style="ellipse;whiteSpace=wrap;html=1;align=center;" vertex="1" parent="1">
          <mxGeometry x="-230" y="770" width="100" height="40" as="geometry" />
        </mxCell>
        <mxCell id="ZsojzR8B1eiomDhqGxiO-7" value="" style="endArrow=none;html=1;rounded=0;" edge="1" parent="1" source="ZsojzR8B1eiomDhqGxiO-6" target="ZsojzR8B1eiomDhqGxiO-1">
          <mxGeometry relative="1" as="geometry">
            <mxPoint x="-304" y="741" as="sourcePoint" />
            <mxPoint x="-255" y="681" as="targetPoint" />
          </mxGeometry>
        </mxCell>
        <mxCell id="ZsojzR8B1eiomDhqGxiO-8" value="EmailAddress" style="ellipse;whiteSpace=wrap;html=1;align=center;" vertex="1" parent="1">
          <mxGeometry x="-140" y="730" width="100" height="40" as="geometry" />
        </mxCell>
        <mxCell id="ZsojzR8B1eiomDhqGxiO-9" value="" style="endArrow=none;html=1;rounded=0;" edge="1" parent="1" source="ZsojzR8B1eiomDhqGxiO-8" target="ZsojzR8B1eiomDhqGxiO-1">
          <mxGeometry relative="1" as="geometry">
            <mxPoint x="-303" y="713" as="sourcePoint" />
            <mxPoint x="-251" y="680" as="targetPoint" />
          </mxGeometry>
        </mxCell>
        <mxCell id="ZsojzR8B1eiomDhqGxiO-10" value="PhoneNumber" style="ellipse;whiteSpace=wrap;html=1;align=center;" vertex="1" parent="1">
          <mxGeometry x="-90" y="680" width="100" height="40" as="geometry" />
        </mxCell>
        <mxCell id="ZsojzR8B1eiomDhqGxiO-11" value="" style="endArrow=none;html=1;rounded=0;" edge="1" parent="1" source="ZsojzR8B1eiomDhqGxiO-1" target="ZsojzR8B1eiomDhqGxiO-10">
          <mxGeometry relative="1" as="geometry">
            <mxPoint x="-170" y="650" as="sourcePoint" />
            <mxPoint x="-110" y="649.89" as="targetPoint" />
          </mxGeometry>
        </mxCell>
        <mxCell id="ZsojzR8B1eiomDhqGxiO-12" value="Name" style="ellipse;whiteSpace=wrap;html=1;align=center;" vertex="1" parent="1">
          <mxGeometry x="-470" y="680" width="100" height="40" as="geometry" />
        </mxCell>
        <mxCell id="ZsojzR8B1eiomDhqGxiO-13" value="" style="endArrow=none;html=1;rounded=0;" edge="1" parent="1" source="ZsojzR8B1eiomDhqGxiO-12" target="ZsojzR8B1eiomDhqGxiO-1">
          <mxGeometry relative="1" as="geometry">
            <mxPoint x="-320" y="660" as="sourcePoint" />
            <mxPoint x="-270" y="660" as="targetPoint" />
          </mxGeometry>
        </mxCell>
        <mxCell id="ZsojzR8B1eiomDhqGxiO-14" value="Gender" style="ellipse;whiteSpace=wrap;html=1;align=center;" vertex="1" parent="1">
          <mxGeometry x="-340" y="770" width="100" height="40" as="geometry" />
        </mxCell>
        <mxCell id="ZsojzR8B1eiomDhqGxiO-15" value="" style="endArrow=none;html=1;rounded=0;" edge="1" parent="1" source="ZsojzR8B1eiomDhqGxiO-14" target="ZsojzR8B1eiomDhqGxiO-1">
          <mxGeometry relative="1" as="geometry">
            <mxPoint x="-387" y="700" as="sourcePoint" />
            <mxPoint x="-270" y="672" as="targetPoint" />
          </mxGeometry>
        </mxCell>
        <mxCell id="ZsojzR8B1eiomDhqGxiO-16" value="" style="endArrow=none;html=1;rounded=0;" edge="1" parent="1" source="ZsojzR8B1eiomDhqGxiO-1" target="ZsojzR8B1eiomDhqGxiO-17">
          <mxGeometry relative="1" as="geometry">
            <mxPoint x="-150" y="580" as="sourcePoint" />
            <mxPoint x="50" y="650" as="targetPoint" />
          </mxGeometry>
        </mxCell>
        <mxCell id="ZsojzR8B1eiomDhqGxiO-17" value="Has" style="shape=rhombus;perimeter=rhombusPerimeter;whiteSpace=wrap;html=1;align=center;" vertex="1" parent="1">
          <mxGeometry x="70" y="620" width="120" height="60" as="geometry" />
        </mxCell>
        <mxCell id="ZsojzR8B1eiomDhqGxiO-18" value="Address" style="whiteSpace=wrap;html=1;align=center;" vertex="1" parent="1">
          <mxGeometry x="370" y="630" width="100" height="40" as="geometry" />
        </mxCell>
        <mxCell id="ZsojzR8B1eiomDhqGxiO-19" value="" style="endArrow=none;html=1;rounded=0;" edge="1" parent="1" source="ZsojzR8B1eiomDhqGxiO-17" target="ZsojzR8B1eiomDhqGxiO-18">
          <mxGeometry relative="1" as="geometry">
            <mxPoint x="140" y="650" as="sourcePoint" />
            <mxPoint x="80" y="660" as="targetPoint" />
          </mxGeometry>
        </mxCell>
        <mxCell id="ZsojzR8B1eiomDhqGxiO-20" value="District" style="ellipse;whiteSpace=wrap;html=1;align=center;" vertex="1" parent="1">
          <mxGeometry x="370" y="760" width="100" height="40" as="geometry" />
        </mxCell>
        <mxCell id="ZsojzR8B1eiomDhqGxiO-21" value="Street" style="ellipse;whiteSpace=wrap;html=1;align=center;" vertex="1" parent="1">
          <mxGeometry x="520" y="680" width="100" height="40" as="geometry" />
        </mxCell>
        <mxCell id="ZsojzR8B1eiomDhqGxiO-22" value="City" style="ellipse;whiteSpace=wrap;html=1;align=center;" vertex="1" parent="1">
          <mxGeometry x="270" y="730" width="100" height="40" as="geometry" />
        </mxCell>
        <mxCell id="ZsojzR8B1eiomDhqGxiO-23" value="&lt;span style=&quot;border-bottom: 1px dotted&quot;&gt;ID&lt;/span&gt;" style="ellipse;whiteSpace=wrap;html=1;align=center;" vertex="1" parent="1">
          <mxGeometry x="220" y="680" width="100" height="40" as="geometry" />
        </mxCell>
        <mxCell id="ZsojzR8B1eiomDhqGxiO-24" value="Neighborhood" style="ellipse;whiteSpace=wrap;html=1;align=center;" vertex="1" parent="1">
          <mxGeometry x="480" y="730" width="100" height="40" as="geometry" />
        </mxCell>
        <mxCell id="ZsojzR8B1eiomDhqGxiO-25" value="" style="endArrow=none;html=1;rounded=0;" edge="1" parent="1" source="ZsojzR8B1eiomDhqGxiO-23" target="ZsojzR8B1eiomDhqGxiO-18">
          <mxGeometry relative="1" as="geometry">
            <mxPoint x="200" y="660" as="sourcePoint" />
            <mxPoint x="380" y="660" as="targetPoint" />
          </mxGeometry>
        </mxCell>
        <mxCell id="ZsojzR8B1eiomDhqGxiO-26" value="" style="endArrow=none;html=1;rounded=0;" edge="1" parent="1" source="ZsojzR8B1eiomDhqGxiO-22" target="ZsojzR8B1eiomDhqGxiO-18">
          <mxGeometry relative="1" as="geometry">
            <mxPoint x="319" y="697" as="sourcePoint" />
            <mxPoint x="380" y="677" as="targetPoint" />
          </mxGeometry>
        </mxCell>
        <mxCell id="ZsojzR8B1eiomDhqGxiO-27" value="" style="endArrow=none;html=1;rounded=0;" edge="1" parent="1" source="ZsojzR8B1eiomDhqGxiO-20" target="ZsojzR8B1eiomDhqGxiO-18">
          <mxGeometry relative="1" as="geometry">
            <mxPoint x="349" y="741" as="sourcePoint" />
            <mxPoint x="410" y="680" as="targetPoint" />
          </mxGeometry>
        </mxCell>
        <mxCell id="ZsojzR8B1eiomDhqGxiO-28" value="" style="endArrow=none;html=1;rounded=0;" edge="1" parent="1" source="ZsojzR8B1eiomDhqGxiO-24" target="ZsojzR8B1eiomDhqGxiO-18">
          <mxGeometry relative="1" as="geometry">
            <mxPoint x="430" y="770" as="sourcePoint" />
            <mxPoint x="430" y="680" as="targetPoint" />
          </mxGeometry>
        </mxCell>
        <mxCell id="ZsojzR8B1eiomDhqGxiO-29" value="" style="endArrow=none;html=1;rounded=0;" edge="1" parent="1" source="ZsojzR8B1eiomDhqGxiO-21" target="ZsojzR8B1eiomDhqGxiO-18">
          <mxGeometry relative="1" as="geometry">
            <mxPoint x="520" y="742" as="sourcePoint" />
            <mxPoint x="452" y="680" as="targetPoint" />
          </mxGeometry>
        </mxCell>
        <mxCell id="ZsojzR8B1eiomDhqGxiO-30" value="Subscribes" style="shape=rhombus;perimeter=rhombusPerimeter;whiteSpace=wrap;html=1;align=center;" vertex="1" parent="1">
          <mxGeometry x="-290" y="350" width="120" height="60" as="geometry" />
        </mxCell>
        <mxCell id="ZsojzR8B1eiomDhqGxiO-31" value="" style="endArrow=none;html=1;rounded=0;" edge="1" parent="1" source="ZsojzR8B1eiomDhqGxiO-1" target="ZsojzR8B1eiomDhqGxiO-30">
          <mxGeometry relative="1" as="geometry">
            <mxPoint x="-170" y="660" as="sourcePoint" />
            <mxPoint x="80" y="660" as="targetPoint" />
          </mxGeometry>
        </mxCell>
        <mxCell id="ZsojzR8B1eiomDhqGxiO-32" value="Plan" style="whiteSpace=wrap;html=1;align=center;" vertex="1" parent="1">
          <mxGeometry x="-280" y="80" width="100" height="40" as="geometry" />
        </mxCell>
        <mxCell id="ZsojzR8B1eiomDhqGxiO-33" value="" style="endArrow=none;html=1;rounded=0;" edge="1" parent="1" source="ZsojzR8B1eiomDhqGxiO-30" target="ZsojzR8B1eiomDhqGxiO-32">
          <mxGeometry relative="1" as="geometry">
            <mxPoint x="-120" y="420" as="sourcePoint" />
            <mxPoint x="-220" y="420" as="targetPoint" />
          </mxGeometry>
        </mxCell>
        <mxCell id="ZsojzR8B1eiomDhqGxiO-34" value="&lt;span style=&quot;border-bottom: 1px dotted&quot;&gt;ID&lt;/span&gt;" style="ellipse;whiteSpace=wrap;html=1;align=center;" vertex="1" parent="1">
          <mxGeometry x="-480" y="80" width="100" height="40" as="geometry" />
        </mxCell>
        <mxCell id="ZsojzR8B1eiomDhqGxiO-35" value="" style="endArrow=none;html=1;rounded=0;" edge="1" parent="1" source="ZsojzR8B1eiomDhqGxiO-34" target="ZsojzR8B1eiomDhqGxiO-32">
          <mxGeometry relative="1" as="geometry">
            <mxPoint x="-390" y="660" as="sourcePoint" />
            <mxPoint x="-270" y="660" as="targetPoint" />
          </mxGeometry>
        </mxCell>
        <mxCell id="ZsojzR8B1eiomDhqGxiO-36" value="Name" style="ellipse;whiteSpace=wrap;html=1;align=center;" vertex="1" parent="1">
          <mxGeometry x="-450" y="10" width="100" height="40" as="geometry" />
        </mxCell>
        <mxCell id="ZsojzR8B1eiomDhqGxiO-37" value="" style="endArrow=none;html=1;rounded=0;" edge="1" parent="1" source="ZsojzR8B1eiomDhqGxiO-36" target="ZsojzR8B1eiomDhqGxiO-32">
          <mxGeometry relative="1" as="geometry">
            <mxPoint x="-380" y="110" as="sourcePoint" />
            <mxPoint x="-270" y="110" as="targetPoint" />
          </mxGeometry>
        </mxCell>
        <mxCell id="ZsojzR8B1eiomDhqGxiO-38" value="Description" style="ellipse;whiteSpace=wrap;html=1;align=center;" vertex="1" parent="1">
          <mxGeometry x="-390" y="-60" width="100" height="40" as="geometry" />
        </mxCell>
        <mxCell id="ZsojzR8B1eiomDhqGxiO-39" value="" style="endArrow=none;html=1;rounded=0;" edge="1" parent="1" source="ZsojzR8B1eiomDhqGxiO-38" target="ZsojzR8B1eiomDhqGxiO-32">
          <mxGeometry relative="1" as="geometry">
            <mxPoint x="-358" y="45" as="sourcePoint" />
            <mxPoint x="-263" y="90" as="targetPoint" />
          </mxGeometry>
        </mxCell>
        <mxCell id="ZsojzR8B1eiomDhqGxiO-40" value="Price" style="ellipse;whiteSpace=wrap;html=1;align=center;" vertex="1" parent="1">
          <mxGeometry x="-280" y="-90" width="100" height="40" as="geometry" />
        </mxCell>
        <mxCell id="ZsojzR8B1eiomDhqGxiO-41" value="" style="endArrow=none;html=1;rounded=0;" edge="1" parent="1" source="ZsojzR8B1eiomDhqGxiO-40" target="ZsojzR8B1eiomDhqGxiO-32">
          <mxGeometry relative="1" as="geometry">
            <mxPoint x="-306" y="-11" as="sourcePoint" />
            <mxPoint x="-234" y="90" as="targetPoint" />
          </mxGeometry>
        </mxCell>
        <mxCell id="ZsojzR8B1eiomDhqGxiO-42" value="Type" style="ellipse;whiteSpace=wrap;html=1;align=center;" vertex="1" parent="1">
          <mxGeometry x="-170" y="-50" width="100" height="40" as="geometry" />
        </mxCell>
        <mxCell id="ZsojzR8B1eiomDhqGxiO-43" value="" style="endArrow=none;html=1;rounded=0;" edge="1" parent="1" source="ZsojzR8B1eiomDhqGxiO-42" target="ZsojzR8B1eiomDhqGxiO-32">
          <mxGeometry relative="1" as="geometry">
            <mxPoint x="-220" y="-40" as="sourcePoint" />
            <mxPoint x="-220" y="90" as="targetPoint" />
          </mxGeometry>
        </mxCell>
        <mxCell id="ZsojzR8B1eiomDhqGxiO-44" value="&lt;span style=&quot;border-bottom: 1px dotted&quot;&gt;ID&lt;/span&gt;" style="ellipse;whiteSpace=wrap;html=1;align=center;" vertex="1" parent="1">
          <mxGeometry x="-460" y="360" width="100" height="40" as="geometry" />
        </mxCell>
        <mxCell id="ZsojzR8B1eiomDhqGxiO-45" value="" style="endArrow=none;html=1;rounded=0;" edge="1" parent="1" source="ZsojzR8B1eiomDhqGxiO-44" target="ZsojzR8B1eiomDhqGxiO-30">
          <mxGeometry relative="1" as="geometry">
            <mxPoint x="-370" y="110" as="sourcePoint" />
            <mxPoint x="-270" y="110" as="targetPoint" />
          </mxGeometry>
        </mxCell>
        <mxCell id="ZsojzR8B1eiomDhqGxiO-46" value="StartDate" style="ellipse;whiteSpace=wrap;html=1;align=center;" vertex="1" parent="1">
          <mxGeometry x="-360" y="440" width="100" height="40" as="geometry" />
        </mxCell>
        <mxCell id="ZsojzR8B1eiomDhqGxiO-47" value="" style="endArrow=none;html=1;rounded=0;" edge="1" parent="1" source="ZsojzR8B1eiomDhqGxiO-46" target="ZsojzR8B1eiomDhqGxiO-30">
          <mxGeometry relative="1" as="geometry">
            <mxPoint x="-370" y="390" as="sourcePoint" />
            <mxPoint x="-280" y="390" as="targetPoint" />
          </mxGeometry>
        </mxCell>
        <mxCell id="ZsojzR8B1eiomDhqGxiO-48" value="ExpireDate" style="ellipse;whiteSpace=wrap;html=1;align=center;" vertex="1" parent="1">
          <mxGeometry x="-360" y="280" width="100" height="40" as="geometry" />
        </mxCell>
        <mxCell id="ZsojzR8B1eiomDhqGxiO-49" value="" style="endArrow=none;html=1;rounded=0;" edge="1" parent="1" source="ZsojzR8B1eiomDhqGxiO-48" target="ZsojzR8B1eiomDhqGxiO-30">
          <mxGeometry relative="1" as="geometry">
            <mxPoint x="-318" y="472" as="sourcePoint" />
            <mxPoint x="-242" y="409" as="targetPoint" />
          </mxGeometry>
        </mxCell>
        <mxCell id="ZsojzR8B1eiomDhqGxiO-50" value="Active" style="ellipse;whiteSpace=wrap;html=1;align=center;" vertex="1" parent="1">
          <mxGeometry x="-100" y="10" width="100" height="40" as="geometry" />
        </mxCell>
        <mxCell id="ZsojzR8B1eiomDhqGxiO-51" value="" style="endArrow=none;html=1;rounded=0;" edge="1" parent="1" source="ZsojzR8B1eiomDhqGxiO-50" target="ZsojzR8B1eiomDhqGxiO-32">
          <mxGeometry relative="1" as="geometry">
            <mxPoint x="-126" y="-1" as="sourcePoint" />
            <mxPoint x="-203" y="90" as="targetPoint" />
          </mxGeometry>
        </mxCell>
        <mxCell id="ZsojzR8B1eiomDhqGxiO-52" value="ExpireDate" style="ellipse;whiteSpace=wrap;html=1;align=center;" vertex="1" parent="1">
          <mxGeometry x="-200" y="280" width="100" height="40" as="geometry" />
        </mxCell>
        <mxCell id="ZsojzR8B1eiomDhqGxiO-53" value="StartDate" style="ellipse;whiteSpace=wrap;html=1;align=center;" vertex="1" parent="1">
          <mxGeometry x="-200" y="440" width="100" height="40" as="geometry" />
        </mxCell>
        <mxCell id="ZsojzR8B1eiomDhqGxiO-54" value="" style="endArrow=none;html=1;rounded=0;" edge="1" parent="1" source="ZsojzR8B1eiomDhqGxiO-53" target="ZsojzR8B1eiomDhqGxiO-30">
          <mxGeometry relative="1" as="geometry">
            <mxPoint x="-318" y="472" as="sourcePoint" />
            <mxPoint x="-242" y="409" as="targetPoint" />
          </mxGeometry>
        </mxCell>
        <mxCell id="ZsojzR8B1eiomDhqGxiO-55" value="" style="endArrow=none;html=1;rounded=0;" edge="1" parent="1" source="ZsojzR8B1eiomDhqGxiO-52" target="ZsojzR8B1eiomDhqGxiO-30">
          <mxGeometry relative="1" as="geometry">
            <mxPoint x="-122" y="472" as="sourcePoint" />
            <mxPoint x="-197" y="409" as="targetPoint" />
          </mxGeometry>
        </mxCell>
      </root>
    </mxGraphModel>
  </diagram>
</mxfile>
